<?xml version="1.0" standalone="no"?>
<!DOCTYPE svg PUBLIC "-//W3C//DTD SVG 20010904//EN"
 "http://www.w3.org/TR/2001/REC-SVG-20010904/DTD/svg10.dtd">
<svg version="1.0" xmlns="http://www.w3.org/2000/svg"
 width="128.000000pt" height="128.000000pt" viewBox="0 0 128.000000 128.000000"
 preserveAspectRatio="xMidYMid meet">

<g transform="translate(0.000000,128.000000) scale(0.100000,-0.100000)"
fill="#000000" stroke="none">
<path d="M1036 1257 c-53 -30 -78 -67 -84 -124 -4 -40 -9 -51 -36 -68 -17 -11
-39 -37 -49 -57 -10 -21 -25 -38 -32 -38 -8 0 -30 -14 -50 -31 l-35 -32 -62
28 c-277 124 -595 -32 -673 -331 -50 -193 40 -419 210 -526 248 -155 579 -62
703 199 65 137 67 277 7 412 l-28 61 32 35 c17 20 31 42 31 50 0 7 17 22 38
32 20 10 46 32 57 50 16 25 27 32 53 33 83 1 152 65 159 148 12 131 -128 224
-241 159z m139 -82 c18 -17 25 -35 25 -63 0 -96 -133 -122 -169 -33 -37 88 77
164 144 96z m-181 -181 c9 -8 16 -19 16 -24 0 -13 -30 -40 -44 -40 -16 0 -36
20 -36 36 0 14 27 44 40 44 5 0 16 -7 24 -16z m-371 -115 c167 -55 277 -210
277 -390 0 -233 -177 -409 -412 -409 -164 0 -301 87 -376 240 -25 50 -27 65
-27 170 0 105 2 120 27 170 96 196 307 286 511 219z m265 9 c17 -17 15 -38 -5
-60 -16 -18 -17 -18 -45 9 -26 25 -27 28 -11 45 19 21 44 23 61 6z"/>
<path d="M375 768 c-8 -26 -15 -33 -35 -32 -14 1 -32 4 -41 8 -21 9 -39 -38
-39 -103 0 -42 -4 -48 -35 -69 -20 -12 -44 -37 -55 -54 l-19 -32 29 -18 c36
-21 37 -34 8 -66 l-23 -24 30 -24 c17 -14 49 -29 72 -35 37 -10 42 -15 52 -52
6 -23 21 -55 35 -72 l24 -30 24 23 c32 29 44 28 65 -5 9 -16 18 -30 20 -32 6
-8 73 51 90 79 15 26 23 30 64 30 65 0 112 18 103 39 -17 39 -10 65 21 75 17
6 32 11 33 12 9 6 -22 77 -45 104 -25 30 -25 31 -9 70 9 22 16 59 16 81 0 40
0 40 -33 34 -43 -8 -61 12 -52 55 6 30 6 30 -34 30 -22 0 -59 -7 -81 -16 -41
-16 -42 -16 -68 8 -23 21 -79 48 -101 48 -4 0 -11 -15 -16 -32z m85 -83 c12
-14 9 -119 -3 -131 -3 -3 -29 6 -59 19 -72 32 -89 86 -28 87 8 0 26 9 40 20
30 24 34 24 50 5z m194 -75 c21 -11 23 -16 14 -36 -6 -13 -16 -24 -22 -25 -6
0 -32 -4 -58 -8 l-48 -8 0 32 c0 58 11 93 34 103 17 8 24 5 38 -18 10 -14 29
-32 42 -40z m-287 -105 l57 -26 -44 -44 c-31 -32 -52 -45 -72 -45 -26 0 -28 3
-28 41 0 22 -5 49 -10 59 -8 15 -6 21 7 29 25 14 25 14 90 -14z m323 -50 c9
-11 8 -20 -8 -42 -10 -15 -22 -41 -26 -56 -5 -21 -11 -27 -22 -23 -9 3 -20 6
-25 6 -8 0 -59 99 -59 115 0 6 40 12 86 14 26 0 46 -5 54 -14z m-184 -92 c21
-46 23 -61 15 -80 -9 -20 -14 -22 -30 -13 -11 5 -38 10 -60 10 -38 0 -41 2
-41 27 0 19 14 41 42 70 23 24 44 43 46 43 2 0 14 -26 28 -57z"/>
</g>
</svg>
